# xmcd
#
# Track frame offsets: 
#        150
#        16915
#        41404
#        65803
#        85742
#        104400
#        128188
#        151390
#        171243
#        193648
#        216245
#        233846
#
# Disc length: 3350 seconds
#
# Revision: 0
# Processed by: cddbd v1.5.1PL2 Copyright (c) Steve Scherf et al.
# Submitted via: ExactAudioCopy v0.95b4
#
DISCID=a10d140c
DTITLE=Henry Butler - Homeland
DYEAR=2004
DGENRE=Blues
TTITLE0=Jump to the Music
TTITLE1=Henry's Boogie
TTITLE2=The Way We Loved
TTITLE3=Homeland
TTITLE4=Hey Little Girl
TTITLE5=Casino
TTITLE6=Some Iko
TTITLE7=The Game Band Strut
TTITLE8=I Stand Accused
TTITLE9=OS7.0
TTITLE10=You Can't Beat My Love
TTITLE11=Ode to Fess
EXTD=
EXTT0=
EXTT1=
EXTT2=
EXTT3=
EXTT4=
EXTT5=
EXTT6=
EXTT7=
EXTT8=
EXTT9=
EXTT10=
EXTT11=
PLAYORDER=
